<?xml version="1.0" standalone="no"?>
<!DOCTYPE svg PUBLIC "-//W3C//DTD SVG 20010904//EN"
 "http://www.w3.org/TR/2001/REC-SVG-20010904/DTD/svg10.dtd">
<svg version="1.0" xmlns="http://www.w3.org/2000/svg"
 width="16.000000pt" height="16.000000pt" viewBox="0 0 16.000000 16.000000"
 preserveAspectRatio="xMidYMid meet">
<metadata>
Created by potrace 1.11, written by Peter Selinger 2001-2013
</metadata>
<g transform="translate(0.000000,16.000000) scale(0.003125,-0.003125)"
fill="#000000" stroke="none">
<path d="M2400 3902 c-80 -27 -109 -45 -163 -99 -87 -86 -114 -157 -124 -320
l-6 -112 -29 61 c-52 110 -135 184 -245 218 -147 45 -290 10 -399 -99 -90 -90
-131 -215 -112 -338 5 -31 94 -280 198 -553 l188 -497 5 -359 c4 -377 6 -388
54 -479 27 -52 116 -135 173 -163 25 -12 70 -26 99 -32 76 -14 1134 -13 1203
1 116 24 225 109 274 214 38 83 182 676 194 801 21 230 9 463 -29 550 -45 102
-180 196 -300 210 -53 6 -59 9 -76 40 -27 51 -98 112 -163 141 -45 21 -74 26
-138 27 l-82 1 -5 240 c-5 248 -9 276 -54 360 -32 60 -110 132 -180 167 -81
40 -199 48 -283 20z m200 -204 c24 -13 58 -40 74 -61 l31 -39 3 -461 3 -462
-80 -175 -80 -175 -188 -5 c-156 -4 -194 -8 -223 -23 -19 -10 -76 -62 -127
-115 l-92 -97 -1 42 c0 31 -58 194 -201 570 -196 515 -201 529 -197 590 3 51
9 69 34 100 82 103 225 108 309 12 22 -25 74 -150 190 -457 l160 -422 52 0 52
0 3 539 3 539 31 39 c38 48 106 83 159 83 23 0 60 -10 85 -22z m467 -799 c57
-27 93 -87 93 -154 0 -40 -20 -92 -122 -316 -113 -246 -138 -293 -138 -256 0
30 -60 95 -111 121 -40 20 -68 26 -116 26 -35 0 -63 2 -63 5 0 7 184 412 217
480 52 104 144 141 240 94z m354 -212 c55 -29 89 -85 89 -146 0 -35 -24 -97
-116 -300 -146 -322 -167 -361 -207 -388 -115 -79 -267 3 -267 143 0 41 20 92
129 331 71 156 140 297 152 314 26 37 90 68 140 69 20 0 56 -10 80 -23z m79
-602 c-18 -104 -148 -623 -165 -656 -21 -39 -53 -68 -100 -90 -37 -17 -76 -19
-600 -19 l-561 0 -44 23 c-24 12 -58 39 -74 60 l-31 39 -3 282 -3 281 101 110
c148 162 129 155 450 155 259 0 268 -1 310 -23 124 -66 116 -249 -14 -308 -35
-16 -67 -19 -223 -19 l-183 0 0 -26 0 -26 198 4 c213 3 236 8 287 64 l23 25 7
-30 c11 -52 59 -107 120 -136 47 -24 64 -27 111 -22 68 7 136 45 168 95 14 20
71 140 128 266 l103 229 3 -104 c2 -57 -2 -135 -8 -174z"/>
</g>
</svg>
